<svg xmlns="http://www.w3.org/2000/svg" width="24" height="24" version="1.0"><path fill="#010101" d="M7.173 12.548a.347.347 0 0 1-.239-.094 3.65 3.65 0 0 1-1.163-2.56 3.6 3.6 0 0 1 .977-2.601 3.573 3.573 0 0 1 2.517-1.16 3.63 3.63 0 0 1 2.62.975c.026.01.081.064.125.108.16.108.231.353.123.513-.108.159-.297.229-.456.121a1.018 1.018 0 0 1-.161-.139 1.619 1.619 0 0 1-.109-.093 2.923 2.923 0 0 0-2.115-.786 2.886 2.886 0 0 0-2.03.936 2.913 2.913 0 0 0-.79 2.103c.026.793.36 1.529.941 2.071a.351.351 0 0 1-.24.606zM7.853 5.337a.352.352 0 0 1-.336-.25l-.37-1.244a.35.35 0 1 1 .672-.199l.369 1.244a.35.35 0 0 1-.335.449zM3.265 12.18a.35.35 0 0 1-.108-.683l1.217-.396a.35.35 0 1 1 .216.666l-1.217.396a.338.338 0 0 1-.108.017zM4.851 7.882a.34.34 0 0 1-.165-.042l-1.163-.621a.35.35 0 0 1 .331-.618l1.162.622a.35.35 0 0 1-.165.659zM11.788 5.677a.35.35 0 0 1-.309-.513l.594-1.131a.35.35 0 1 1 .619.326l-.594 1.131a.35.35 0 0 1-.31.187z"/><path fill="#010101" d="M14.847 18.147h-6.6a.349.349 0 0 1-.165-.042c-1.679-.209-2.931-1.601-2.931-3.277 0-1.815 1.49-3.292 3.322-3.292.073 0 .146.003.218.009.062-2.464 2.074-4.449 4.54-4.449 2.504 0 4.541 2.047 4.541 4.564 0 .044-.001.089-.004.134a3.182 3.182 0 0 1 3.317 3.173c0 1.062-.545 2.059-1.458 2.667a.35.35 0 0 1-.388-.583c.719-.478 1.147-1.257 1.147-2.084a2.482 2.482 0 0 0-2.48-2.477c-.178 0-.33.026-.481.052-.11.02-.223-.017-.303-.095s-.117-.19-.102-.301c.031-.206.054-.346.054-.486 0-2.13-1.724-3.864-3.842-3.864S9.39 9.531 9.39 11.661c0 .044 0 .137.011.168.037.115.014.244-.064.336s-.197.137-.315.125c-.188-.027-.366-.053-.547-.053-1.446 0-2.623 1.163-2.623 2.591 0 1.326 1.056 2.465 2.402 2.592a.34.34 0 0 1 .104.027h6.489a.35.35 0 0 1 0 .7z"/><path fill="#010101" d="M17.196 20.607c-1.457 0-2.643-1.197-2.643-2.668 0-.613.199-1.186.564-1.629a.3.3 0 0 1 .059-.1l1.728-1.978c.133-.154.424-.154.557 0l1.58 1.803c.01.008.019.016.026.025.49.525.771 1.21.771 1.879.001 1.471-1.185 2.668-2.642 2.668zm-1.405-4.036a.296.296 0 0 1-.065.107 1.83 1.83 0 0 0-.473 1.26c0 1.085.872 1.968 1.943 1.968 1.053 0 1.943-.901 1.943-1.968 0-.491-.211-1-.579-1.396-.015-.013-.027-.027-.04-.042l-.001.001-1.337-1.522-1.391 1.592z"/></svg>