<svg xmlns="http://www.w3.org/2000/svg" width="24" height="24" version="1.0"><path fill="#010101" d="M16.956 15.941H7.157a.343.343 0 0 1-.153-.038c-1.675-.175-2.972-1.584-2.972-3.252 0-1.814 1.491-3.291 3.324-3.291.075 0 .146 0 .218.002a4.57 4.57 0 0 1 4.567-4.47c2.504 0 4.541 2.047 4.541 4.563 0 .046-.002.091-.006.134a3 3 0 0 1 .137-.004c1.739 0 3.154 1.426 3.154 3.178 0 1.714-1.286 3.08-2.992 3.177l-.019.001zm-9.688-.7h9.679a2.449 2.449 0 0 0 2.322-2.477c0-1.366-1.102-2.478-2.455-2.478-.176 0-.328.026-.479.052a.35.35 0 0 1-.407-.345c0-.1.014-.2.03-.303a1.33 1.33 0 0 0 .026-.234c0-2.13-1.724-3.863-3.842-3.863a3.87 3.87 0 0 0-3.869 3.863c0 .039.006.074.011.108.008.064.016.128.016.203a.35.35 0 0 1-.447.337c-.149-.044-.288-.044-.497-.044-1.447 0-2.625 1.162-2.625 2.59 0 1.359 1.042 2.461 2.424 2.563.04.003.078.013.113.028zm.655 3.867a.35.35 0 0 1-.35-.35v-1.611a.35.35 0 1 1 .7 0v1.611a.351.351 0 0 1-.35.35zm1.783 0a.35.35 0 0 1-.35-.35v-1.611a.35.35 0 1 1 .7 0v1.611a.35.35 0 0 1-.35.35zm1.785 0a.35.35 0 0 1-.35-.35v-1.611a.35.35 0 1 1 .7 0v1.611a.35.35 0 0 1-.35.35zm1.783 0a.35.35 0 0 1-.35-.35v-1.611a.35.35 0 1 1 .7 0v1.611a.35.35 0 0 1-.35.35zm1.784 0a.35.35 0 0 1-.35-.35v-1.611a.35.35 0 1 1 .7 0v1.611a.351.351 0 0 1-.35.35zm1.785 0a.35.35 0 0 1-.35-.35v-1.611a.35.35 0 1 1 .7 0v1.611a.351.351 0 0 1-.35.35z"/></svg>