<svg xmlns="http://www.w3.org/2000/svg" width="24" height="24" version="1.0"><path fill="#010101" d="M6.591 10.795a.347.347 0 0 1-.25-.105c-1.408-1.437-1.407-3.751.003-5.158a3.628 3.628 0 0 1 5.104-.062.35.35 0 1 1-.484.506 2.933 2.933 0 0 0-4.126.051C5.699 7.164 5.7 9.036 6.841 10.2a.35.35 0 0 1-.25.595zm.311-6.927a.351.351 0 0 1-.322-.212l-.51-1.188a.35.35 0 1 1 .644-.276l.51 1.188a.35.35 0 0 1-.322.488zm-3.907 7.266a.35.35 0 0 1-.138-.671l1.189-.509a.35.35 0 1 1 .275.643l-1.189.509a.35.35 0 0 1-.137.028zm1.161-4.467a.358.358 0 0 1-.128-.024L2.81 6.162a.35.35 0 0 1 .256-.652l1.218.48a.35.35 0 0 1 .197.454.349.349 0 0 1-.325.223zm6.682-2.856a.348.348 0 0 1-.325-.479l.481-1.216a.35.35 0 0 1 .65.258l-.48 1.216a.351.351 0 0 1-.326.221z"/><path fill="#010101" d="M18.371 15.772H8.574a.35.35 0 0 1-.154-.038c-1.659-.175-2.944-1.586-2.944-3.253 0-1.814 1.492-3.291 3.325-3.291.07 0 .142 0 .217.003.049-2.474 2.066-4.471 4.539-4.471 2.504 0 4.542 2.047 4.542 4.563 0 .047-.001.092-.004.136a3.183 3.183 0 0 1 3.318 3.172c0 1.718-1.33 3.114-3.028 3.178l-.014.001zM8.8 9.89c-1.447 0-2.625 1.162-2.625 2.59 0 1.336 1.052 2.463 2.395 2.564.04.003.077.013.112.027h9.681c1.317-.053 2.348-1.14 2.348-2.478a2.482 2.482 0 0 0-2.482-2.477c-.152 0-.33.026-.481.052a.35.35 0 0 1-.403-.405c.026-.151.051-.302.051-.479 0-2.13-1.723-3.863-3.841-3.863-2.117 0-3.839 1.733-3.839 3.863 0 .108 0 .16.018.229a.351.351 0 0 1-.437.42c-.15-.043-.318-.043-.497-.043zm.537 9.076a.35.35 0 0 1-.35-.35v-1.64a.35.35 0 0 1 .7 0v1.64a.348.348 0 0 1-.35.35zm1.785 3.139a.35.35 0 0 1-.35-.35v-1.64a.35.35 0 0 1 .7 0v1.64a.35.35 0 0 1-.35.35zm1.784-3.139a.35.35 0 0 1-.35-.35v-1.64a.35.35 0 0 1 .7 0v1.64a.35.35 0 0 1-.35.35zm1.783 3.139a.35.35 0 0 1-.35-.35v-1.64a.35.35 0 0 1 .7 0v1.64a.35.35 0 0 1-.35.35zm1.785-3.139a.35.35 0 0 1-.35-.35v-1.64a.35.35 0 0 1 .7 0v1.64a.35.35 0 0 1-.35.35zm1.783 3.139a.35.35 0 0 1-.35-.35v-1.64a.35.35 0 0 1 .7 0v1.64a.35.35 0 0 1-.35.35z"/></svg>