<svg xmlns="http://www.w3.org/2000/svg" width="24" height="24" version="1.0"><path fill="#010101" d="M13.388 14.655a.35.35 0 0 1 0-.7h3.568c1.287-.075 2.311-1.164 2.311-2.478 0-1.39-1.077-2.477-2.453-2.477-.177 0-.329.026-.48.052a.35.35 0 0 1-.408-.345 2.1 2.1 0 0 1 .035-.346c.01-.065.022-.128.022-.191a3.872 3.872 0 0 0-3.87-3.864c-2.118 0-3.84 1.733-3.84 3.864 0 .027.006.059.01.091.01.067.018.134.018.191a.35.35 0 0 1-.121.265.364.364 0 0 1-.278.081c-.218-.032-.361-.053-.546-.053-1.422 0-2.624 1.187-2.624 2.591 0 1.35 1.044 2.464 2.429 2.592a.337.337 0 0 1 .106.027h2.155a.35.35 0 0 1 0 .7H7.158a.345.345 0 0 1-.157-.04c-1.699-.204-2.968-1.597-2.968-3.279 0-1.784 1.522-3.292 3.324-3.292.078 0 .149.003.218.008.062-2.463 2.074-4.447 4.539-4.447 2.52 0 4.57 2.047 4.57 4.564 0 .044-.003.089-.008.134a3.09 3.09 0 0 1 .139-.004c1.768 0 3.153 1.396 3.153 3.177a3.182 3.182 0 0 1-2.991 3.178l-3.589.001zm-6.626 3.082a.35.35 0 0 1-.248-.598l1.161-1.159a.35.35 0 1 1 .495.495l-1.161 1.159a.348.348 0 0 1-.247.103zm2.151 0a.35.35 0 0 1-.248-.598l1.161-1.159a.35.35 0 1 1 .495.495L9.16 17.634a.346.346 0 0 1-.247.103zm4.305 0a.35.35 0 0 1-.248-.598l1.161-1.159a.35.35 0 1 1 .495.495l-1.161 1.159a.348.348 0 0 1-.247.103zm2.152 0a.35.35 0 0 1-.248-.598l1.161-1.159a.35.35 0 1 1 .495.495l-1.161 1.159a.346.346 0 0 1-.247.103zM4.496 20.395a.35.35 0 0 1-.248-.598l1.161-1.16a.35.35 0 0 1 .495.495l-1.161 1.16a.346.346 0 0 1-.247.103zm2.152 0a.35.35 0 0 1-.248-.598l1.161-1.16a.35.35 0 0 1 .495.495l-1.161 1.16a.343.343 0 0 1-.247.103zm2.152 0a.35.35 0 0 1-.248-.598l1.161-1.16a.35.35 0 0 1 .495.495l-1.161 1.16a.346.346 0 0 1-.247.103zm2.152 0a.35.35 0 0 1-.248-.598l1.161-1.16a.35.35 0 0 1 .495.495l-1.161 1.16a.344.344 0 0 1-.247.103zm2.152 0a.35.35 0 0 1-.248-.598l1.161-1.16a.35.35 0 0 1 .495.495l-1.161 1.16a.343.343 0 0 1-.247.103z"/><path fill="#010101" d="M10.527 18.529a.35.35 0 0 1-.343-.421l.707-3.454H9.395a.35.35 0 0 1-.337-.443l1.189-4.298a.35.35 0 0 1 .337-.257h3.087a.35.35 0 0 1 .289.548l-1.408 2.053h1.799a.35.35 0 0 1 .289.548l-3.823 5.571a.353.353 0 0 1-.29.153zm-.673-4.574h1.466a.353.353 0 0 1 .343.421l-.446 2.18 2.469-3.598h-1.799a.35.35 0 0 1-.289-.548l1.408-2.052H10.85l-.996 3.597z"/></svg>